<?xml version="1.0" encoding="UTF-8"?>
<svg xmlns="http://www.w3.org/2000/svg" width="400.00" height="400.00" viewBox="0 0 400.00 400.00">
<style>
  .enneagram { stroke: #333; fill: none; stroke-width: 1.5; }
  .point { fill: #333; }
  .label { font-family: Arial, sans-serif; font-size: 12px; text-anchor: middle; dominant-baseline: middle; }
  .triangle { stroke: #333; stroke-width: 2; fill: none; }
  .hexad { stroke: #333; stroke-width: 1; fill: none; }
</style>
<rect width="100%" height="100%" fill="white"/>
<g transform="translate(200.00,200.00) scale(160.00,-160.00)" class="enneagram">
  <circle cx="0.00" cy="0.00" r="1.00"/>
  <polygon points="0.98,0.17 -0.34,-0.94 -0.64,0.77" class="triangle"/>
  <g class="hexad">
    <line x1="0.00" y1="1.00" x2="0.87" y2="-0.50"/>
    <line x1="0.87" y1="-0.50" x2="0.64" y2="0.77"/>
    <line x1="0.64" y1="0.77" x2="-0.98" y2="0.17"/>
    <line x1="-0.98" y1="0.17" x2="0.34" y2="-0.94"/>
    <line x1="0.34" y1="-0.94" x2="-0.87" y2="-0.50"/>
    <line x1="-0.87" y1="-0.50" x2="0.00" y2="1.00"/>
  </g>
  <circle cx="0.00" cy="1.00" r="0.02" class="point"/>
  <circle cx="0.64" cy="0.77" r="0.02" class="point"/>
  <circle cx="0.98" cy="0.17" r="0.02" class="point"/>
  <circle cx="0.87" cy="-0.50" r="0.02" class="point"/>
  <circle cx="0.34" cy="-0.94" r="0.02" class="point"/>
  <circle cx="-0.34" cy="-0.94" r="0.02" class="point"/>
  <circle cx="-0.87" cy="-0.50" r="0.02" class="point"/>
  <circle cx="-0.98" cy="0.17" r="0.02" class="point"/>
  <circle cx="-0.64" cy="0.77" r="0.02" class="point"/>
</g>
<g class="label">
  <text x="200.00" y="16.00">1</text>
  <text x="318.27" y="59.05">2</text>
  <text x="381.20" y="168.05">3</text>
  <text x="359.35" y="292.00">4</text>
  <text x="262.93" y="372.90">5</text>
  <text x="137.07" y="372.90">6</text>
  <text x="40.65" y="292.00">7</text>
  <text x="18.80" y="168.05">8</text>
  <text x="81.73" y="59.05">9</text>
</g>
</svg>
