<?xml version="1.0" encoding="UTF-8"?>
<svg xmlns="http://www.w3.org/2000/svg" width="600.00" height="600.00">
<style>
  .outer { stroke: #333; fill: none; stroke-width: 2; }
  .nested { stroke: #666; fill: none; stroke-width: 1; }
  .point { fill: #333; }
</style>
<rect width="100%" height="100%" fill="white"/>
<g transform="translate(300.00,300.00) scale(210.00,-210.00)" class="outer">
  <circle cx="0.00" cy="0.00" r="1.00"/>
  <line x1="0.00" y1="1.00" x2="0.87" y2="-0.50"/>
  <line x1="0.87" y1="-0.50" x2="0.64" y2="0.77"/>
  <line x1="0.64" y1="0.77" x2="-0.98" y2="0.17"/>
  <line x1="-0.98" y1="0.17" x2="0.34" y2="-0.94"/>
  <line x1="0.34" y1="-0.94" x2="-0.87" y2="-0.50"/>
  <line x1="-0.87" y1="-0.50" x2="0.00" y2="1.00"/>
  <line x1="0.98" y1="0.17" x2="-0.34" y2="-0.94"/>
  <line x1="-0.34" y1="-0.94" x2="-0.64" y2="0.77"/>
  <line x1="-0.64" y1="0.77" x2="0.98" y2="0.17"/>
</g>
<g transform="translate(300.00,300.00) scale(210.00,-210.00)" class="nested">
  <circle cx="0.00" cy="1.00" r="0.25"/>
  <line x1="0.00" y1="1.25" x2="0.22" y2="0.88"/>
  <line x1="0.22" y1="0.88" x2="0.16" y2="1.19"/>
  <line x1="0.16" y1="1.19" x2="-0.25" y2="1.04"/>
  <line x1="-0.25" y1="1.04" x2="0.09" y2="0.77"/>
  <line x1="0.09" y1="0.77" x2="-0.22" y2="0.87"/>
  <line x1="-0.22" y1="0.87" x2="0.00" y2="1.25"/>
  <line x1="0.25" y1="1.04" x2="-0.09" y2="0.77"/>
  <line x1="-0.09" y1="0.77" x2="-0.16" y2="1.19"/>
  <line x1="-0.16" y1="1.19" x2="0.25" y2="1.04"/>
  <circle cx="0.64" cy="0.77" r="0.25"/>
  <line x1="0.64" y1="1.02" x2="0.86" y2="0.64"/>
  <line x1="0.86" y1="0.64" x2="0.80" y2="0.96"/>
  <line x1="0.80" y1="0.96" x2="0.40" y2="0.81"/>
  <line x1="0.40" y1="0.81" x2="0.73" y2="0.53"/>
  <line x1="0.73" y1="0.53" x2="0.43" y2="0.64"/>
  <line x1="0.43" y1="0.64" x2="0.64" y2="1.02"/>
  <line x1="0.89" y1="0.81" x2="0.56" y2="0.53"/>
  <line x1="0.56" y1="0.53" x2="0.48" y2="0.96"/>
  <line x1="0.48" y1="0.96" x2="0.89" y2="0.81"/>
  <circle cx="0.98" cy="0.17" r="0.25"/>
  <line x1="0.98" y1="0.42" x2="1.20" y2="0.05"/>
  <line x1="1.20" y1="0.05" x2="1.15" y2="0.37"/>
  <line x1="1.15" y1="0.37" x2="0.74" y2="0.22"/>
  <line x1="0.74" y1="0.22" x2="1.07" y2="-0.06"/>
  <line x1="1.07" y1="-0.06" x2="0.77" y2="0.05"/>
  <line x1="0.77" y1="0.05" x2="0.98" y2="0.42"/>
  <line x1="1.23" y1="0.22" x2="0.90" y2="-0.06"/>
  <line x1="0.90" y1="-0.06" x2="0.82" y2="0.37"/>
  <line x1="0.82" y1="0.37" x2="1.23" y2="0.22"/>
  <circle cx="0.87" cy="-0.50" r="0.25"/>
  <line x1="0.87" y1="-0.25" x2="1.08" y2="-0.62"/>
  <line x1="1.08" y1="-0.62" x2="1.03" y2="-0.31"/>
  <line x1="1.03" y1="-0.31" x2="0.62" y2="-0.46"/>
  <line x1="0.62" y1="-0.46" x2="0.95" y2="-0.73"/>
  <line x1="0.95" y1="-0.73" x2="0.65" y2="-0.62"/>
  <line x1="0.65" y1="-0.62" x2="0.87" y2="-0.25"/>
  <line x1="1.11" y1="-0.46" x2="0.78" y2="-0.73"/>
  <line x1="0.78" y1="-0.73" x2="0.71" y2="-0.31"/>
  <line x1="0.71" y1="-0.31" x2="1.11" y2="-0.46"/>
  <circle cx="0.34" cy="-0.94" r="0.25"/>
  <line x1="0.34" y1="-0.69" x2="0.56" y2="-1.06"/>
  <line x1="0.56" y1="-1.06" x2="0.50" y2="-0.75"/>
  <line x1="0.50" y1="-0.75" x2="0.10" y2="-0.90"/>
  <line x1="0.10" y1="-0.90" x2="0.43" y2="-1.17"/>
  <line x1="0.43" y1="-1.17" x2="0.13" y2="-1.06"/>
  <line x1="0.13" y1="-1.06" x2="0.34" y2="-0.69"/>
  <line x1="0.59" y1="-0.90" x2="0.26" y2="-1.17"/>
  <line x1="0.26" y1="-1.17" x2="0.18" y2="-0.75"/>
  <line x1="0.18" y1="-0.75" x2="0.59" y2="-0.90"/>
  <circle cx="-0.34" cy="-0.94" r="0.25"/>
  <line x1="-0.34" y1="-0.69" x2="-0.13" y2="-1.06"/>
  <line x1="-0.13" y1="-1.06" x2="-0.18" y2="-0.75"/>
  <line x1="-0.18" y1="-0.75" x2="-0.59" y2="-0.90"/>
  <line x1="-0.59" y1="-0.90" x2="-0.26" y2="-1.17"/>
  <line x1="-0.26" y1="-1.17" x2="-0.56" y2="-1.06"/>
  <line x1="-0.56" y1="-1.06" x2="-0.34" y2="-0.69"/>
  <line x1="-0.10" y1="-0.90" x2="-0.43" y2="-1.17"/>
  <line x1="-0.43" y1="-1.17" x2="-0.50" y2="-0.75"/>
  <line x1="-0.50" y1="-0.75" x2="-0.10" y2="-0.90"/>
  <circle cx="-0.87" cy="-0.50" r="0.25"/>
  <line x1="-0.87" y1="-0.25" x2="-0.65" y2="-0.63"/>
  <line x1="-0.65" y1="-0.63" x2="-0.71" y2="-0.31"/>
  <line x1="-0.71" y1="-0.31" x2="-1.11" y2="-0.46"/>
  <line x1="-1.11" y1="-0.46" x2="-0.78" y2="-0.73"/>
  <line x1="-0.78" y1="-0.73" x2="-1.08" y2="-0.63"/>
  <line x1="-1.08" y1="-0.63" x2="-0.87" y2="-0.25"/>
  <line x1="-0.62" y1="-0.46" x2="-0.95" y2="-0.73"/>
  <line x1="-0.95" y1="-0.73" x2="-1.03" y2="-0.31"/>
  <line x1="-1.03" y1="-0.31" x2="-0.62" y2="-0.46"/>
  <circle cx="-0.98" cy="0.17" r="0.25"/>
  <line x1="-0.98" y1="0.42" x2="-0.77" y2="0.05"/>
  <line x1="-0.77" y1="0.05" x2="-0.82" y2="0.37"/>
  <line x1="-0.82" y1="0.37" x2="-1.23" y2="0.22"/>
  <line x1="-1.23" y1="0.22" x2="-0.90" y2="-0.06"/>
  <line x1="-0.90" y1="-0.06" x2="-1.20" y2="0.05"/>
  <line x1="-1.20" y1="0.05" x2="-0.98" y2="0.42"/>
  <line x1="-0.74" y1="0.22" x2="-1.07" y2="-0.06"/>
  <line x1="-1.07" y1="-0.06" x2="-1.15" y2="0.37"/>
  <line x1="-1.15" y1="0.37" x2="-0.74" y2="0.22"/>
  <circle cx="-0.64" cy="0.77" r="0.25"/>
  <line x1="-0.64" y1="1.02" x2="-0.43" y2="0.64"/>
  <line x1="-0.43" y1="0.64" x2="-0.48" y2="0.96"/>
  <line x1="-0.48" y1="0.96" x2="-0.89" y2="0.81"/>
  <line x1="-0.89" y1="0.81" x2="-0.56" y2="0.53"/>
  <line x1="-0.56" y1="0.53" x2="-0.86" y2="0.64"/>
  <line x1="-0.86" y1="0.64" x2="-0.64" y2="1.02"/>
  <line x1="-0.40" y1="0.81" x2="-0.73" y2="0.53"/>
  <line x1="-0.73" y1="0.53" x2="-0.80" y2="0.96"/>
  <line x1="-0.80" y1="0.96" x2="-0.40" y2="0.81"/>
</g>
</svg>
